FrauncesItalic-144G100Black.ufo
<glyph name="less" format="2">
  <advance width="1012"/>
  <unicode hex="003C"/>
  <outline>
    <contour>
      <point x="404" y="685" type="line"/>
      <point x="817" y="372" type="line" smooth="yes"/>
      <point x="874" y="331"/>
      <point x="890" y="288"/>
      <point x="879" y="244" type="curve" smooth="yes"/>
      <point x="864" y="186"/>
      <point x="827" y="156"/>
      <point x="757" y="156" type="curve" smooth="yes"/>
      <point x="699" y="156"/>
      <point x="651" y="187"/>
      <point x="578" y="235" type="curve" smooth="yes"/>
      <point x="190" y="507" type="line" smooth="yes"/>
      <point x="128" y="548"/>
      <point x="109" y="610"/>
      <point x="127" y="684" type="curve" smooth="yes"/>
      <point x="147" y="759"/>
      <point x="199" y="821"/>
      <point x="281" y="862" type="curve" smooth="yes"/>
      <point x="803" y="1134" type="line" smooth="yes"/>
      <point x="901" y="1182"/>
      <point x="960" y="1213"/>
      <point x="1017" y="1213" type="curve" smooth="yes"/>
      <point x="1081" y="1213"/>
      <point x="1108" y="1146"/>
      <point x="1088" y="1073" type="curve" smooth="yes"/>
      <point x="1075" y="1025"/>
      <point x="1035" y="980"/>
      <point x="957" y="940" type="curve" smooth="yes"/>
      <point x="392" y="639" type="line"/>
    </contour>
  </outline>
</glyph>
<glyph name="B" format="2">
  <advance width="1373"/>
  <unicode hex="0042"/>
  <outline>
    <contour>
      <point x="743" y="1046" type="curve" smooth="yes"/>
      <point x="776" y="1170"/>
      <point x="808" y="1217"/>
      <point x="899" y="1217" type="curve" smooth="yes"/>
      <point x="974" y="1217"/>
      <point x="1024" y="1161"/>
      <point x="1016" y="1052" type="curve" smooth="yes"/>
      <point x="1004" y="870"/>
      <point x="912" y="718"/>
      <point x="743" y="718" type="curve" smooth="yes"/>
      <point x="526" y="718" type="line"/>
      <point x="483" y="561" type="line"/>
      <point x="752" y="561" type="line" smooth="yes"/>
      <point x="875" y="561"/>
      <point x="927" y="495"/>
      <point x="905" y="375" type="curve" smooth="yes"/>
      <point x="882" y="249"/>
      <point x="808" y="184"/>
      <point x="685" y="184" type="curve" smooth="yes"/>
      <point x="610" y="184"/>
      <point x="546" y="236"/>
      <point x="571" y="336" type="curve" smooth="yes"/>
      <point x="606" y="481"/>
      <point x="704" y="884"/>
    </contour>
    <contour>
      <point x="368" y="1400" type="line" smooth="yes"/>
      <point x="294" y="1400"/>
      <point x="255" y="1354"/>
      <point x="255" y="1288" type="curve" smooth="yes"/>
      <point x="255" y="1249"/>
      <point x="272" y="1224"/>
      <point x="308" y="1203" type="curve" smooth="yes"/>
      <point x="332" y="1189" type="line" smooth="yes"/>
      <point x="382" y="1159"/>
      <point x="356" y="1123"/>
      <point x="334" y="1020" type="curve" smooth="yes"/>
      <point x="309" y="904"/>
      <point x="199" y="494"/>
      <point x="152" y="307" type="curve" smooth="yes"/>
      <point x="138" y="256"/>
      <point x="133" y="236"/>
      <point x="100" y="219" type="curve" smooth="yes"/>
      <point x="71" y="203" type="line" smooth="yes"/>
      <point x="29" y="181"/>
      <point x="2" y="142"/>
      <point x="2" y="94" type="curve" smooth="yes"/>
      <point x="2" y="40"/>
      <point x="21" y="0"/>
      <point x="99" y="0" type="curve" smooth="yes"/>
      <point x="686" y="0" type="line" smooth="yes"/>
      <point x="1076" y="0"/>
      <point x="1291" y="129"/>
      <point x="1320" y="358" type="curve" smooth="yes"/>
      <point x="1345" y="547"/>
      <point x="1238" y="672"/>
      <point x="909" y="672" type="curve"/>
      <point x="921" y="654" type="line"/>
      <point x="1225" y="654"/>
      <point x="1402" y="841"/>
      <point x="1416" y="1040" type="curve" smooth="yes"/>
      <point x="1433" y="1272"/>
      <point x="1302" y="1400"/>
      <point x="966" y="1400" type="curve" smooth="yes"/>
    </contour>
  </outline>
</glyph>
<glyph name="U" format="2">
  <advance width="1398"/>
  <unicode hex="0055"/>
  <anchor x="1036" y="1479.0" name="center"/>
  <outline>
    <contour>
      <point x="1008" y="476" type="line" smooth="yes"/>
      <point x="949" y="262"/>
      <point x="859" y="197"/>
      <point x="746" y="197" type="curve" smooth="yes"/>
      <point x="643" y="197"/>
      <point x="583" y="261"/>
      <point x="585" y="386" type="curve" smooth="yes"/>
      <point x="586" y="447"/>
      <point x="599" y="516"/>
      <point x="633" y="643" type="curve" smooth="yes"/>
      <point x="733" y="1034" type="line" smooth="yes"/>
      <point x="756" y="1118"/>
      <point x="768" y="1164"/>
      <point x="812" y="1185" type="curve" smooth="yes"/>
      <point x="829" y="1193" type="line" smooth="yes"/>
      <point x="873" y="1214"/>
      <point x="897" y="1268"/>
      <point x="898" y="1315" type="curve" smooth="yes"/>
      <point x="899" y="1371"/>
      <point x="868" y="1400"/>
      <point x="804" y="1400" type="curve" smooth="yes"/>
      <point x="304" y="1400" type="line" smooth="yes"/>
      <point x="254" y="1400"/>
      <point x="222" y="1358"/>
      <point x="221" y="1310" type="curve" smooth="yes"/>
      <point x="220" y="1261"/>
      <point x="234" y="1242"/>
      <point x="275" y="1205" type="curve" smooth="yes"/>
      <point x="288" y="1193" type="line" smooth="yes"/>
      <point x="311" y="1173"/>
      <point x="316" y="1098"/>
      <point x="297" y="1025" type="curve" smooth="yes"/>
      <point x="201" y="643" type="line" smooth="yes"/>
      <point x="178" y="556"/>
      <point x="142" y="430"/>
      <point x="140" y="331" type="curve" smooth="yes"/>
      <point x="138" y="139"/>
      <point x="277" y="-30"/>
      <point x="574" y="-30" type="curve" smooth="yes"/>
      <point x="901" y="-30"/>
      <point x="1119" y="111"/>
      <point x="1213" y="458" type="curve" smooth="yes"/>
      <point x="1351" y="992" type="line" smooth="yes"/>
      <point x="1378" y="1090"/>
      <point x="1394" y="1139"/>
      <point x="1459" y="1175" type="curve" smooth="yes"/>
      <point x="1477" y="1185" type="line" smooth="yes"/>
      <point x="1531" y="1214"/>
      <point x="1565" y="1243"/>
      <point x="1565" y="1310" type="curve" smooth="yes"/>
      <point x="1565" y="1362"/>
      <point x="1536" y="1400"/>
      <point x="1475" y="1400" type="curve" smooth="yes"/>
      <point x="1147" y="1400" type="line" smooth="yes"/>
      <point x="1076" y="1400"/>
      <point x="1040" y="1355"/>
      <point x="1039" y="1301" type="curve" smooth="yes"/>
      <point x="1038" y="1251"/>
      <point x="1055" y="1225"/>
      <point x="1115" y="1188" type="curve" smooth="yes"/>
      <point x="1131" y="1178" type="line" smooth="yes"/>
      <point x="1185" y="1145"/>
      <point x="1174" y="1092"/>
      <point x="1150" y="1009" type="curve" smooth="yes"/>
    </contour>
  </outline>
</glyph>
<glyph name="registered" format="2">
  <advance width="1380"/>
  <unicode hex="00AE"/>
  <outline>
    <contour>
      <point x="615" y="213" type="curve" smooth="yes"/>
      <point x="221" y="213"/>
      <point x="9" y="526"/>
      <point x="120" y="940" type="curve" smooth="yes"/>
      <point x="218" y="1303"/>
      <point x="578" y="1562"/>
      <point x="974" y="1562" type="curve" smooth="yes"/>
      <point x="1363" y="1562"/>
      <point x="1587" y="1264"/>
      <point x="1478" y="855" type="curve" smooth="yes"/>
      <point x="1379" y="486"/>
      <point x="1015" y="213"/>
    </contour>
    <contour>
      <point x="653" y="352" type="curve" smooth="yes"/>
      <point x="959" y="352"/>
      <point x="1241" y="567"/>
      <point x="1317" y="855" type="curve" smooth="yes"/>
      <point x="1403" y="1182"/>
      <point x="1231" y="1422"/>
      <point x="936" y="1422" type="curve" smooth="yes"/>
      <point x="635" y="1422"/>
      <point x="357" y="1223"/>
      <point x="282" y="940" type="curve" smooth="yes"/>
      <point x="193" y="606"/>
      <point x="352" y="352"/>
    </contour>
    <contour>
      <point x="1168" y="994" type="curve" smooth="yes"/>
      <point x="1204" y="1128"/>
      <point x="1117" y="1226"/>
      <point x="895" y="1226" type="curve" smooth="yes"/>
      <point x="602" y="1226" type="line" smooth="yes"/>
      <point x="560" y="1226"/>
      <point x="538" y="1208"/>
      <point x="529" y="1176" type="curve" smooth="yes"/>
      <point x="523" y="1153"/>
      <point x="527" y="1134"/>
      <point x="545" y="1124" type="curve" smooth="yes"/>
      <point x="554" y="1116" type="line" smooth="yes"/>
      <point x="563" y="1108"/>
      <point x="568" y="1099"/>
      <point x="563" y="1076" type="curve" smooth="yes"/>
      <point x="533" y="966"/>
      <point x="504" y="831"/>
      <point x="471" y="722" type="curve" smooth="yes"/>
      <point x="465" y="697"/>
      <point x="455" y="690"/>
      <point x="442" y="683" type="curve" smooth="yes"/>
      <point x="428" y="675" type="line" smooth="yes"/>
      <point x="405" y="662"/>
      <point x="390" y="645"/>
      <point x="384" y="622" type="curve" smooth="yes"/>
      <point x="376" y="591"/>
      <point x="388" y="572"/>
      <point x="430" y="572" type="curve" smooth="yes"/>
      <point x="655" y="572" type="line" smooth="yes"/>
      <point x="693" y="572"/>
      <point x="715" y="589"/>
      <point x="724" y="622" type="curve" smooth="yes"/>
      <point x="730" y="643"/>
      <point x="733" y="656"/>
      <point x="719" y="672" type="curve" smooth="yes"/>
      <point x="713" y="679" type="line" smooth="yes"/>
      <point x="706" y="688"/>
      <point x="707" y="695"/>
      <point x="714" y="722" type="curve" smooth="yes"/>
      <point x="742" y="821"/>
      <point x="781" y="986"/>
      <point x="798" y="1044" type="curve" smooth="yes"/>
      <point x="812" y="1093"/>
      <point x="830" y="1120"/>
      <point x="869" y="1120" type="curve" smooth="yes"/>
      <point x="912" y="1120"/>
      <point x="940" y="1063"/>
      <point x="922" y="995" type="curve" smooth="yes"/>
      <point x="907" y="934"/>
      <point x="869" y="904"/>
      <point x="807" y="904" type="curve" smooth="yes"/>
      <point x="758" y="904"/>
      <point x="742" y="908"/>
      <point x="709" y="938" type="curve"/>
      <point x="684" y="831" type="line"/>
      <point x="710" y="815"/>
      <point x="752" y="793"/>
      <point x="811" y="793" type="curve" smooth="yes"/>
      <point x="882" y="793"/>
      <point x="921" y="824"/>
      <point x="989" y="835" type="curve" smooth="yes"/>
      <point x="1077" y="850"/>
      <point x="1149" y="919"/>
    </contour>
    <contour>
      <point x="794" y="848" type="line"/>
      <point x="805" y="672" type="line" smooth="yes"/>
      <point x="811" y="585"/>
      <point x="850" y="552"/>
      <point x="914" y="552" type="curve" smooth="yes"/>
      <point x="1004" y="552"/>
      <point x="1087" y="601"/>
      <point x="1119" y="682" type="curve" smooth="yes"/>
      <point x="1133" y="718"/>
      <point x="1123" y="748"/>
      <point x="1104" y="748" type="curve" smooth="yes"/>
      <point x="1094" y="748"/>
      <point x="1086" y="746"/>
      <point x="1079" y="743" type="curve" smooth="yes"/>
      <point x="1067" y="739"/>
      <point x="1056" y="733"/>
      <point x="1043" y="733" type="curve" smooth="yes"/>
      <point x="1027" y="733"/>
      <point x="1010" y="750"/>
      <point x="1008" y="783" type="curve" smooth="yes"/>
      <point x="1001" y="889" type="line"/>
    </contour>
  </outline>
</glyph>
<glyph name="degree" format="2">
  <advance width="744"/>
  <unicode hex="00B0"/>
  <outline>
    <contour>
      <point x="619" y="1439" type="curve" smooth="yes"/>
      <point x="430" y="1439"/>
      <point x="266" y="1294"/>
      <point x="219" y="1110" type="curve" smooth="yes"/>
      <point x="172" y="919"/>
      <point x="271" y="782"/>
      <point x="455" y="782" type="curve" smooth="yes"/>
      <point x="635" y="782"/>
      <point x="804" y="912"/>
      <point x="852" y="1103" type="curve" smooth="yes"/>
      <point x="902" y="1301"/>
      <point x="803" y="1439"/>
    </contour>
    <contour>
      <point x="575" y="1265" type="curve" smooth="yes"/>
      <point x="652" y="1265"/>
      <point x="690" y="1200"/>
      <point x="667" y="1107" type="curve" smooth="yes"/>
      <point x="646" y="1019"/>
      <point x="573" y="957"/>
      <point x="499" y="957" type="curve" smooth="yes"/>
      <point x="424" y="957"/>
      <point x="384" y="1020"/>
      <point x="405" y="1110" type="curve" smooth="yes"/>
      <point x="427" y="1197"/>
      <point x="496" y="1265"/>
    </contour>
  </outline>
</glyph>
<glyph name="AE" format="2">
  <advance width="1925"/>
  <unicode hex="00C6"/>
  <anchor x="1379.0" y="1582" name="center"/>
  <outline>
    <contour>
      <point x="1291" y="1400" type="line"/>
      <point x="822" y="1400" type="line" smooth="yes"/>
      <point x="749" y="1400"/>
      <point x="706" y="1363"/>
      <point x="689" y="1302" type="curve" smooth="yes"/>
      <point x="676" y="1256"/>
      <point x="684" y="1222"/>
      <point x="716" y="1202" type="curve" smooth="yes"/>
      <point x="755" y="1177"/>
      <point x="759" y="1150"/>
      <point x="708" y="1085" type="curve" smooth="yes"/>
      <point x="133" y="332" type="line" smooth="yes"/>
      <point x="89" y="277"/>
      <point x="54" y="233"/>
      <point x="20" y="211" type="curve" smooth="yes"/>
      <point x="-5" y="194" type="line" smooth="yes"/>
      <point x="-51" y="164"/>
      <point x="-75" y="138"/>
      <point x="-86" y="98" type="curve" smooth="yes"/>
      <point x="-102" y="37"/>
      <point x="-79" y="0"/>
      <point x="-6" y="0" type="curve" smooth="yes"/>
      <point x="313" y="0" type="line" smooth="yes"/>
      <point x="387" y="0"/>
      <point x="430" y="37"/>
      <point x="447" y="98" type="curve" smooth="yes"/>
      <point x="460" y="145"/>
      <point x="443" y="173"/>
      <point x="412" y="193" type="curve" smooth="yes"/>
      <point x="387" y="209" type="line" smooth="yes"/>
      <point x="351" y="231"/>
      <point x="362" y="291"/>
      <point x="426" y="374" type="curve" smooth="yes"/>
      <point x="1041" y="1199" type="line"/>
      <point x="1149" y="1199" type="line"/>
    </contour>
    <contour>
      <point x="498" y="694" type="line"/>
      <point x="443" y="492" type="line"/>
      <point x="986" y="492" type="line"/>
      <point x="1041" y="694" type="line"/>
    </contour>
    <contour>
      <point x="1150" y="809" type="line"/>
      <point x="1108" y="632" type="line"/>
      <point x="1476" y="632" type="line" smooth="yes"/>
      <point x="1544" y="632"/>
      <point x="1574" y="624"/>
      <point x="1602" y="567" type="curve" smooth="yes"/>
      <point x="1620" y="534"/>
      <point x="1645" y="506"/>
      <point x="1687" y="506" type="curve" smooth="yes"/>
      <point x="1743" y="506"/>
      <point x="1782" y="543"/>
      <point x="1772" y="623" type="curve" smooth="yes"/>
      <point x="1744" y="851" type="line" smooth="yes"/>
      <point x="1737" y="904"/>
      <point x="1709" y="938"/>
      <point x="1657" y="938" type="curve" smooth="yes"/>
      <point x="1624" y="938"/>
      <point x="1598" y="924"/>
      <point x="1574" y="882" type="curve" smooth="yes"/>
      <point x="1542" y="820"/>
      <point x="1520" y="809"/>
      <point x="1483" y="809" type="curve" smooth="yes"/>
    </contour>
    <contour>
      <point x="1407" y="0" type="line" smooth="yes"/>
      <point x="1484" y="0"/>
      <point x="1534" y="-36"/>
      <point x="1598" y="-36" type="curve" smooth="yes"/>
      <point x="1757" y="-36"/>
      <point x="1857" y="128"/>
      <point x="1857" y="321" type="curve" smooth="yes"/>
      <point x="1857" y="398"/>
      <point x="1826" y="442"/>
      <point x="1772" y="442" type="curve" smooth="yes"/>
      <point x="1729" y="442"/>
      <point x="1691" y="406"/>
      <point x="1655" y="338" type="curve" smooth="yes"/>
      <point x="1591" y="207"/>
      <point x="1544" y="177"/>
      <point x="1422" y="177" type="curve" smooth="yes"/>
      <point x="1331" y="177" type="line" smooth="yes"/>
      <point x="1251" y="177"/>
      <point x="1231" y="217"/>
      <point x="1241" y="279" type="curve" smooth="yes"/>
      <point x="1265" y="408"/>
      <point x="1438" y="1051"/>
      <point x="1480" y="1223" type="curve"/>
      <point x="1629" y="1223" type="line" smooth="yes"/>
      <point x="1725" y="1223"/>
      <point x="1778" y="1175"/>
      <point x="1812" y="1068" type="curve" smooth="yes"/>
      <point x="1847" y="968"/>
      <point x="1890" y="943"/>
      <point x="1950" y="953" type="curve" smooth="yes"/>
      <point x="2002" y="962"/>
      <point x="2031" y="1003"/>
      <point x="2021" y="1071" type="curve" smooth="yes"/>
      <point x="1983" y="1328" type="line" smooth="yes"/>
      <point x="1971" y="1402"/>
      <point x="1932" y="1436"/>
      <point x="1876" y="1436" type="curve" smooth="yes"/>
      <point x="1813" y="1436"/>
      <point x="1759" y="1400"/>
      <point x="1668" y="1400" type="curve" smooth="yes"/>
      <point x="1122" y="1400" type="line"/>
      <point x="1055" y="1098"/>
      <point x="854" y="397"/>
      <point x="830" y="319" type="curve" smooth="yes"/>
      <point x="811" y="255"/>
      <point x="802" y="233"/>
      <point x="776" y="219" type="curve" smooth="yes"/>
      <point x="746" y="203" type="line" smooth="yes"/>
      <point x="707" y="183"/>
      <point x="677" y="145"/>
      <point x="677" y="94" type="curve" smooth="yes"/>
      <point x="677" y="40"/>
      <point x="696" y="0"/>
      <point x="775" y="0" type="curve" smooth="yes"/>
    </contour>
  </outline>
</glyph>
<glyph name="Oslash" format="2">
  <advance width="1466"/>
  <unicode hex="00D8"/>
  <anchor x="1014" y="1546.0" name="center"/>
  <outline>
    <contour>
      <point x="138" y="-179" type="curve" smooth="yes"/>
      <point x="166" y="-197"/>
      <point x="199" y="-186"/>
      <point x="223" y="-153" type="curve" smooth="yes"/>
      <point x="1377" y="1490" type="line" smooth="yes"/>
      <point x="1399" y="1520"/>
      <point x="1397" y="1551"/>
      <point x="1370" y="1566" type="curve" smooth="yes"/>
      <point x="1343" y="1582"/>
      <point x="1308" y="1572"/>
      <point x="1287" y="1541" type="curve" smooth="yes"/>
      <point x="136" y="-100" type="line" smooth="yes"/>
      <point x="112" y="-132"/>
      <point x="112" y="-167"/>
    </contour>
    <component base="O" xOffset="-15"/>
  </outline>
</glyph>
<glyph name="aogonek" format="2">
  <advance width="1082"/>
  <unicode hex="0105"/>
  <outline>
    <contour>
      <point x="911" y="87" type="line"/>
      <point x="579" y="-11"/>
      <point x="441" y="-149"/>
      <point x="441" y="-291" type="curve" smooth="yes"/>
      <point x="441" y="-385"/>
      <point x="492" y="-443"/>
      <point x="628" y="-443" type="curve" smooth="yes"/>
      <point x="756" y="-443"/>
      <point x="866" y="-379"/>
      <point x="923" y="-299" type="curve" smooth="yes"/>
      <point x="963" y="-244"/>
      <point x="949" y="-208"/>
      <point x="925" y="-200" type="curve" smooth="yes"/>
      <point x="902" y="-191"/>
      <point x="883" y="-203"/>
      <point x="855" y="-224" type="curve" smooth="yes"/>
      <point x="826" y="-246"/>
      <point x="804" y="-255"/>
      <point x="786" y="-255" type="curve" smooth="yes"/>
      <point x="765" y="-255"/>
      <point x="746" y="-237"/>
      <point x="746" y="-201" type="curve" smooth="yes"/>
      <point x="746" y="-137"/>
      <point x="801" y="-29"/>
      <point x="925" y="40" type="curve"/>
    </contour>
    <component base="a" xOffset="-10"/>
  </outline>
</glyph>
<glyph name="iogonek" format="2">
  <advance width="634"/>
  <unicode hex="012F"/>
  <outline>
    <contour>
      <point x="457" y="86" type="line"/>
      <point x="123" y="-12"/>
      <point x="-13" y="-149"/>
      <point x="-13" y="-292" type="curve" smooth="yes"/>
      <point x="-13" y="-385"/>
      <point x="47" y="-443"/>
      <point x="174" y="-443" type="curve" smooth="yes"/>
      <point x="301" y="-443"/>
      <point x="412" y="-379"/>
      <point x="469" y="-299" type="curve" smooth="yes"/>
      <point x="509" y="-244"/>
      <point x="494" y="-208"/>
      <point x="471" y="-200" type="curve" smooth="yes"/>
      <point x="448" y="-191"/>
      <point x="428" y="-203"/>
      <point x="401" y="-224" type="curve" smooth="yes"/>
      <point x="373" y="-246"/>
      <point x="351" y="-255"/>
      <point x="333" y="-255" type="curve" smooth="yes"/>
      <point x="311" y="-255"/>
      <point x="292" y="-238"/>
      <point x="292" y="-201" type="curve" smooth="yes"/>
      <point x="292" y="-137"/>
      <point x="347" y="-29"/>
      <point x="471" y="38" type="curve"/>
    </contour>
    <component base="i" xOffset="-7" yOffset="1"/>
  </outline>
</glyph>
<glyph name="dotlessi" format="2">
  <advance width="630"/>
  <unicode hex="0131"/>
  <anchor x="443" y="980" name="center"/>
  <outline>
    <contour>
      <point x="491" y="293" type="curve" smooth="yes"/>
      <point x="504" y="293"/>
      <point x="510" y="293"/>
      <point x="531" y="306" type="curve" smooth="yes"/>
      <point x="553" y="319"/>
      <point x="571" y="320"/>
      <point x="590" y="302" type="curve" smooth="yes"/>
      <point x="614" y="281"/>
      <point x="617" y="235"/>
      <point x="584" y="170" type="curve" smooth="yes"/>
      <point x="522" y="52"/>
      <point x="403" y="-28"/>
      <point x="257" y="-28" type="curve" smooth="yes"/>
      <point x="64" y="-28"/>
      <point x="21" y="116"/>
      <point x="95" y="289" type="curve" smooth="yes"/>
      <point x="168" y="476" type="line" smooth="yes"/>
      <point x="206" y="569"/>
      <point x="199" y="592"/>
      <point x="166" y="592" type="curve" smooth="yes"/>
      <point x="152" y="592"/>
      <point x="140" y="585"/>
      <point x="119" y="575" type="curve" smooth="yes"/>
      <point x="87" y="558"/>
      <point x="63" y="561"/>
      <point x="47" y="573" type="curve" smooth="yes"/>
      <point x="17" y="595"/>
      <point x="14" y="647"/>
      <point x="51" y="703" type="curve" smooth="yes"/>
      <point x="118" y="805"/>
      <point x="251" y="894"/>
      <point x="391" y="894" type="curve" smooth="yes"/>
      <point x="565" y="894"/>
      <point x="631" y="762"/>
      <point x="543" y="551" type="curve" smooth="yes"/>
      <point x="483" y="390" type="line" smooth="yes"/>
      <point x="457" y="326"/>
      <point x="460" y="293"/>
    </contour>
  </outline>
</glyph>
<glyph name="Lslash" format="2">
  <advance width="1239"/>
  <unicode hex="0141"/>
  <outline>
    <contour>
      <point x="71" y="525" type="curve" smooth="yes"/>
      <point x="78" y="490"/>
      <point x="108" y="479"/>
      <point x="145" y="496" type="curve" smooth="yes"/>
      <point x="865" y="814" type="line" smooth="yes"/>
      <point x="904" y="831"/>
      <point x="929" y="865"/>
      <point x="923" y="900" type="curve" smooth="yes"/>
      <point x="918" y="931"/>
      <point x="884" y="942"/>
      <point x="846" y="925" type="curve" smooth="yes"/>
      <point x="128" y="608" type="line" smooth="yes"/>
      <point x="91" y="591"/>
      <point x="67" y="557"/>
    </contour>
    <component base="L" xOffset="-15"/>
  </outline>
</glyph>
<glyph name="uhorn" format="2">
  <advance width="1132"/>
  <unicode hex="01B0"/>
  <anchor x="702" y="1016.0" name="center"/>
  <outline>
    <contour>
      <point x="1282" y="1072" type="curve" smooth="yes"/>
      <point x="1299" y="1177"/>
      <point x="1264" y="1258"/>
      <point x="1189" y="1264" type="curve" smooth="yes"/>
      <point x="1103" y="1271"/>
      <point x="1062" y="1210"/>
      <point x="1047" y="1119" type="curve" smooth="yes"/>
      <point x="1029" y="995" type="line" smooth="yes"/>
      <point x="1019" y="926"/>
      <point x="985" y="900"/>
      <point x="904" y="892" type="curve" smooth="yes"/>
      <point x="883" y="891"/>
      <point x="866" y="878"/>
      <point x="866" y="861" type="curve" smooth="yes"/>
      <point x="866" y="843"/>
      <point x="873" y="833"/>
      <point x="882" y="833" type="curve" smooth="yes"/>
      <point x="1130" y="842"/>
      <point x="1260" y="925"/>
    </contour>
    <component base="u" xOffset="-10"/>
  </outline>
</glyph>
<glyph name="primemod" format="2">
  <advance width="635"/>
  <unicode hex="02B9"/>
  <outline>
    <contour>
      <point x="254" y="708" type="curve" smooth="yes"/>
      <point x="294" y="708"/>
      <point x="345" y="732"/>
      <point x="396" y="820" type="curve" smooth="yes"/>
      <point x="722" y="1405" type="line" smooth="yes"/>
      <point x="772" y="1492"/>
      <point x="761" y="1547"/>
      <point x="700" y="1547" type="curve" smooth="yes"/>
      <point x="633" y="1547"/>
      <point x="586" y="1504"/>
      <point x="546" y="1430" type="curve" smooth="yes"/>
      <point x="225" y="830" type="line" smooth="yes"/>
      <point x="182" y="754"/>
      <point x="198" y="708"/>
    </contour>
  </outline>
</glyph>
<glyph name="Germandbls" format="2">
  <advance width="1531"/>
  <unicode hex="1E9E"/>
  <outline>
    <contour>
      <point x="1635" y="1400" type="curve" smooth="yes"/>
      <point x="400" y="1400" type="line" smooth="yes"/>
      <point x="339" y="1400"/>
      <point x="290" y="1365"/>
      <point x="272" y="1299" type="curve" smooth="yes"/>
      <point x="261" y="1259"/>
      <point x="269" y="1221"/>
      <point x="300" y="1202" type="curve" smooth="yes"/>
      <point x="322" y="1188" type="line" smooth="yes"/>
      <point x="360" y="1163"/>
      <point x="370" y="1144"/>
      <point x="355" y="1085" type="curve" smooth="yes"/>
      <point x="153" y="310" type="line" smooth="yes"/>
      <point x="140" y="262"/>
      <point x="114" y="236"/>
      <point x="81" y="220" type="curve" smooth="yes"/>
      <point x="59" y="210" type="line" smooth="yes"/>
      <point x="0" y="183"/>
      <point x="-29" y="154"/>
      <point x="-45" y="95" type="curve" smooth="yes"/>
      <point x="-62" y="31"/>
      <point x="-30" y="0"/>
      <point x="34" y="0" type="curve" smooth="yes"/>
      <point x="346" y="0" type="line" smooth="yes"/>
      <point x="436" y="0"/>
      <point x="512" y="49"/>
      <point x="533" y="122" type="curve" smooth="yes"/>
      <point x="802" y="1145" type="line" smooth="yes"/>
      <point x="822" y="1222"/>
      <point x="868" y="1264"/>
      <point x="937" y="1264" type="curve" smooth="yes"/>
      <point x="1095" y="1264" type="line" smooth="yes"/>
      <point x="1145" y="1264"/>
      <point x="1167" y="1244"/>
      <point x="1156" y="1204" type="curve" smooth="yes"/>
      <point x="1148" y="1176"/>
      <point x="1130" y="1147"/>
      <point x="1080" y="1098" type="curve" smooth="yes"/>
      <point x="875" y="881" type="line" smooth="yes"/>
      <point x="829" y="835"/>
      <point x="807" y="807"/>
      <point x="794" y="763" type="curve" smooth="yes"/>
      <point x="780" y="711"/>
      <point x="801" y="666"/>
      <point x="864" y="666" type="curve" smooth="yes"/>
      <point x="927" y="666" type="line" smooth="yes"/>
      <point x="1060" y="666"/>
      <point x="1104" y="539"/>
      <point x="1063" y="378" type="curve" smooth="yes"/>
      <point x="1029" y="250"/>
      <point x="973" y="180"/>
      <point x="913" y="180" type="curve" smooth="yes"/>
      <point x="875" y="180"/>
      <point x="862" y="207"/>
      <point x="856" y="262" type="curve" smooth="yes"/>
      <point x="849" y="325" type="line" smooth="yes"/>
      <point x="843" y="372"/>
      <point x="833" y="394"/>
      <point x="781" y="394" type="curve" smooth="yes"/>
      <point x="726" y="394"/>
      <point x="694" y="360"/>
      <point x="675" y="294" type="curve" smooth="yes"/>
      <point x="617" y="77" type="line" smooth="yes"/>
      <point x="602" y="19"/>
      <point x="622" y="-30"/>
      <point x="677" y="-30" type="curve" smooth="yes"/>
      <point x="739" y="-30"/>
      <point x="795" y="23"/>
      <point x="840" y="21" type="curve" smooth="yes"/>
      <point x="875" y="19"/>
      <point x="906" y="-30"/>
      <point x="1022" y="-30" type="curve" smooth="yes"/>
      <point x="1249" y="-30"/>
      <point x="1445" y="135"/>
      <point x="1509" y="373" type="curve" smooth="yes"/>
      <point x="1571" y="604"/>
      <point x="1485" y="788"/>
      <point x="1226" y="788" type="curve" smooth="yes"/>
      <point x="1215" y="788"/>
      <point x="1207" y="788"/>
      <point x="1201" y="788" type="curve"/>
      <point x="1194" y="748" type="line"/>
      <point x="1598" y="1136" type="line" smooth="yes"/>
      <point x="1678" y="1210"/>
      <point x="1707" y="1252"/>
      <point x="1722" y="1306" type="curve" smooth="yes"/>
      <point x="1738" y="1363"/>
      <point x="1703" y="1400"/>
    </contour>
  </outline>
</glyph>
<glyph name="bracketangleleft" format="2">
  <advance width="733"/>
  <unicode hex="27E8"/>
  <outline>
    <contour>
      <point x="469" y="565" type="line"/>
      <point x="922" y="1289" type="line" smooth="yes"/>
      <point x="971" y="1363"/>
      <point x="962" y="1414"/>
      <point x="904" y="1414" type="curve" smooth="yes"/>
      <point x="859" y="1414"/>
      <point x="814" y="1379"/>
      <point x="746" y="1308" type="curve" smooth="yes"/>
      <point x="259" y="771" type="line" smooth="yes"/>
      <point x="191" y="699"/>
      <point x="150" y="655"/>
      <point x="131" y="584" type="curve" smooth="yes"/>
      <point x="112" y="511"/>
      <point x="133" y="467"/>
      <point x="161" y="395" type="curve" smooth="yes"/>
      <point x="384" y="-201" type="line" smooth="yes"/>
      <point x="404" y="-252"/>
      <point x="429" y="-284"/>
      <point x="486" y="-284" type="curve" smooth="yes"/>
      <point x="540" y="-284"/>
      <point x="573" y="-225"/>
      <point x="564" y="-159" type="curve" smooth="yes"/>
    </contour>
  </outline>
</glyph>
<glyph name="acutecmb" format="2">
  <advance width="472"/>
  <anchor x="98" y="991" name="center"/>
  <outline>
    <contour>
      <point x="168" y="1227" type="curve" smooth="yes"/>
      <point x="79" y="1085" type="line" smooth="yes"/>
      <point x="54" y="1047"/>
      <point x="36" y="1013"/>
      <point x="53" y="985" type="curve" smooth="yes"/>
      <point x="68" y="961"/>
      <point x="111" y="961"/>
      <point x="150" y="978" type="curve" smooth="yes"/>
      <point x="297" y="1046" type="line" smooth="yes"/>
      <point x="412" y="1097"/>
      <point x="466" y="1141"/>
      <point x="500" y="1218" type="curve" smooth="yes"/>
      <point x="534" y="1297"/>
      <point x="508" y="1380"/>
      <point x="422" y="1396" type="curve" smooth="yes"/>
      <point x="322" y="1415"/>
      <point x="243" y="1340"/>
    </contour>
  </outline>
</glyph>
<glyph name="franc" format="2">
  <advance width="1171"/>
  <outline>
    <contour>
      <point x="210" y="1288" type="curve" smooth="yes"/>
      <point x="210" y="1246"/>
      <point x="230" y="1225"/>
      <point x="263" y="1203" type="curve" smooth="yes"/>
      <point x="289" y="1187" type="line" smooth="yes"/>
      <point x="321" y="1168"/>
      <point x="319" y="1135"/>
      <point x="304" y="1079" type="curve" smooth="yes"/>
      <point x="304" y="1065"/>
      <point x="108" y="326"/>
      <point x="108" y="309" type="curve" smooth="yes"/>
      <point x="94" y="257"/>
      <point x="82" y="233"/>
      <point x="56" y="219" type="curve" smooth="yes"/>
      <point x="26" y="204" type="line" smooth="yes"/>
      <point x="-13" y="183"/>
      <point x="-43" y="144"/>
      <point x="-43" y="94" type="curve" smooth="yes"/>
      <point x="-43" y="39"/>
      <point x="-22" y="0"/>
      <point x="55" y="0" type="curve" smooth="yes"/>
      <point x="543" y="0" type="line" smooth="yes"/>
      <point x="616" y="0"/>
      <point x="657" y="45"/>
      <point x="657" y="111" type="curve" smooth="yes"/>
      <point x="657" y="152"/>
      <point x="643" y="187"/>
      <point x="604" y="197" type="curve" smooth="yes"/>
      <point x="567" y="207" type="line" smooth="yes"/>
      <point x="512" y="221"/>
      <point x="515" y="253"/>
      <point x="533" y="320" type="curve" smooth="yes"/>
      <point x="533" y="334"/>
      <point x="762" y="1204"/>
      <point x="762" y="1223" type="curve"/>
      <point x="854" y="1223" type="line" smooth="yes"/>
      <point x="948" y="1223"/>
      <point x="992" y="1190"/>
      <point x="1041" y="1059" type="curve" smooth="yes"/>
      <point x="1071" y="977"/>
      <point x="1112" y="943"/>
      <point x="1174" y="953" type="curve" smooth="yes"/>
      <point x="1230" y="963"/>
      <point x="1254" y="1009"/>
      <point x="1245" y="1070" type="curve" smooth="yes"/>
      <point x="1207" y="1328" type="line" smooth="yes"/>
      <point x="1196" y="1402"/>
      <point x="1157" y="1436"/>
      <point x="1100" y="1436" type="curve" smooth="yes"/>
      <point x="1037" y="1436"/>
      <point x="984" y="1400"/>
      <point x="892" y="1400" type="curve" smooth="yes"/>
      <point x="324" y="1400" type="line" smooth="yes"/>
      <point x="250" y="1400"/>
      <point x="210" y="1356"/>
    </contour>
    <contour>
      <point x="452" y="841" type="line"/>
      <point x="404" y="657" type="line"/>
      <point x="902" y="657" type="line" smooth="yes"/>
      <point x="952" y="657"/>
      <point x="983" y="681"/>
      <point x="1001" y="753" type="curve" smooth="yes"/>
      <point x="1017" y="815"/>
      <point x="998" y="841"/>
      <point x="942" y="841" type="curve" smooth="yes"/>
    </contour>
    <contour>
      <point x="-18" y="476" type="curve" smooth="yes"/>
      <point x="-27" y="439"/>
      <point x="-16" y="415"/>
      <point x="15" y="415" type="curve" smooth="yes"/>
      <point x="812" y="415" type="line" smooth="yes"/>
      <point x="843" y="415"/>
      <point x="870" y="439"/>
      <point x="880" y="476" type="curve" smooth="yes"/>
      <point x="889" y="510"/>
      <point x="874" y="536"/>
      <point x="842" y="536" type="curve" smooth="yes"/>
      <point x="48" y="536" type="line" smooth="yes"/>
      <point x="20" y="536"/>
      <point x="-8" y="510"/>
    </contour>
  </outline>
</glyph>
<glyph name="manat" format="2">
  <advance width="1532"/>
  <outline>
    <contour>
      <point x="969" y="1363" type="curve" smooth="yes"/>
      <point x="517" y="1363"/>
      <point x="189" y="989"/>
      <point x="19" y="254" type="curve" smooth="yes"/>
      <point x="-18" y="84" type="line" smooth="yes"/>
      <point x="-26" y="46"/>
      <point x="-22" y="0"/>
      <point x="30" y="0" type="curve" smooth="yes"/>
      <point x="283" y="0" type="line" smooth="yes"/>
      <point x="339" y="0"/>
      <point x="381" y="26"/>
      <point x="395" y="84" type="curve" smooth="yes"/>
      <point x="464" y="375" type="line" smooth="yes"/>
      <point x="609" y="986"/>
      <point x="713" y="1198"/>
      <point x="938" y="1198" type="curve" smooth="yes"/>
      <point x="1157" y="1198"/>
      <point x="1186" y="986"/>
      <point x="1046" y="375" type="curve" smooth="yes"/>
      <point x="980" y="84" type="line" smooth="yes"/>
      <point x="966" y="24"/>
      <point x="980" y="0"/>
      <point x="1050" y="0" type="curve" smooth="yes"/>
      <point x="1303" y="0" type="line" smooth="yes"/>
      <point x="1341" y="0"/>
      <point x="1382" y="37"/>
      <point x="1392" y="82" type="curve" smooth="yes"/>
      <point x="1427" y="254" type="line" smooth="yes"/>
      <point x="1586" y="987"/>
      <point x="1393" y="1363"/>
    </contour>
    <contour>
      <point x="689" y="137" type="curve" smooth="yes"/>
      <point x="724" y="137"/>
      <point x="752" y="158"/>
      <point x="762" y="197" type="curve" smooth="yes"/>
      <point x="1094" y="1531" type="line" smooth="yes"/>
      <point x="1105" y="1570"/>
      <point x="1089" y="1596"/>
      <point x="1054" y="1596" type="curve" smooth="yes"/>
      <point x="1021" y="1596"/>
      <point x="989" y="1570"/>
      <point x="979" y="1531" type="curve" smooth="yes"/>
      <point x="647" y="200" type="line" smooth="yes"/>
      <point x="639" y="164"/>
      <point x="656" y="137"/>
    </contour>
  </outline>
</glyph>
<glyph name="peseta" format="2">
  <advance width="1867"/>
  <outline>
    <contour>
      <point x="1280" y="875" type="curve" smooth="yes"/>
      <point x="1355" y="1173"/>
      <point x="1207" y="1400"/>
      <point x="892" y="1400" type="curve" smooth="yes"/>
      <point x="366" y="1400" type="line" smooth="yes"/>
      <point x="292" y="1400"/>
      <point x="252" y="1355"/>
      <point x="252" y="1289" type="curve" smooth="yes"/>
      <point x="252" y="1249"/>
      <point x="270" y="1225"/>
      <point x="305" y="1204" type="curve" smooth="yes"/>
      <point x="332" y="1187" type="line" smooth="yes"/>
      <point x="360" y="1170"/>
      <point x="361" y="1148"/>
      <point x="347" y="1095" type="curve" smooth="yes"/>
      <point x="347" y="1086"/>
      <point x="149" y="315"/>
      <point x="149" y="306" type="curve" smooth="yes"/>
      <point x="135" y="251"/>
      <point x="125" y="233"/>
      <point x="98" y="219" type="curve" smooth="yes"/>
      <point x="68" y="203" type="line" smooth="yes"/>
      <point x="33" y="185"/>
      <point x="-1" y="148"/>
      <point x="-1" y="96" type="curve" smooth="yes"/>
      <point x="-1" y="40"/>
      <point x="17" y="0"/>
      <point x="97" y="0" type="curve" smooth="yes"/>
      <point x="550" y="0" type="line" smooth="yes"/>
      <point x="623" y="0"/>
      <point x="665" y="45"/>
      <point x="665" y="111" type="curve" smooth="yes"/>
      <point x="665" y="153"/>
      <point x="650" y="186"/>
      <point x="611" y="196" type="curve" smooth="yes"/>
      <point x="553" y="213" type="line" smooth="yes"/>
      <point x="525" y="221"/>
      <point x="522" y="252"/>
      <point x="536" y="307" type="curve" smooth="yes"/>
      <point x="536" y="314"/>
      <point x="718" y="1043"/>
      <point x="718" y="1046" type="curve" smooth="yes"/>
      <point x="745" y="1151"/>
      <point x="777" y="1198"/>
      <point x="843" y="1198" type="curve" smooth="yes"/>
      <point x="932" y="1198"/>
      <point x="966" y="1066"/>
      <point x="922" y="889" type="curve" smooth="yes"/>
      <point x="877" y="704"/>
      <point x="776" y="608"/>
      <point x="673" y="608" type="curve" smooth="yes"/>
      <point x="565" y="608"/>
      <point x="527" y="645"/>
      <point x="470" y="681" type="curve"/>
      <point x="410" y="521" type="line"/>
      <point x="493" y="466"/>
      <point x="607" y="427"/>
      <point x="748" y="427" type="curve" smooth="yes"/>
      <point x="1016" y="427"/>
      <point x="1212" y="605"/>
    </contour>
    <contour>
      <point x="1214" y="730" type="line" smooth="yes"/>
      <point x="1270" y="730"/>
      <point x="1286" y="686"/>
      <point x="1259" y="592" type="curve" smooth="yes"/>
      <point x="1208" y="398" type="line" smooth="yes"/>
      <point x="1114" y="81"/>
      <point x="1191" y="-25"/>
      <point x="1362" y="-25" type="curve" smooth="yes"/>
      <point x="1619" y="-25"/>
      <point x="1811" y="168"/>
      <point x="1811" y="276" type="curve" smooth="yes"/>
      <point x="1811" y="315"/>
      <point x="1792" y="340"/>
      <point x="1759" y="340" type="curve" smooth="yes"/>
      <point x="1734" y="340"/>
      <point x="1721" y="332"/>
      <point x="1688" y="305" type="curve" smooth="yes"/>
      <point x="1651" y="269"/>
      <point x="1630" y="254"/>
      <point x="1595" y="254" type="curve" smooth="yes"/>
      <point x="1541" y="254"/>
      <point x="1521" y="288"/>
      <point x="1558" y="421" type="curve" smooth="yes"/>
      <point x="1693" y="912" type="line" smooth="yes"/>
      <point x="1713" y="980"/>
      <point x="1722" y="1039"/>
      <point x="1722" y="1077" type="curve" smooth="yes"/>
      <point x="1722" y="1124"/>
      <point x="1691" y="1159"/>
      <point x="1632" y="1159" type="curve" smooth="yes"/>
      <point x="1573" y="1159"/>
      <point x="1537" y="1128"/>
      <point x="1512" y="1097" type="curve" smooth="yes"/>
      <point x="1436" y="1004" type="line" smooth="yes"/>
      <point x="1382" y="941"/>
      <point x="1343" y="926"/>
      <point x="1278" y="926" type="curve" smooth="yes"/>
      <point x="1261" y="926" type="line"/>
      <point x="1196" y="730" type="line"/>
    </contour>
    <contour>
      <point x="1551" y="696" type="line"/>
      <point x="1737" y="696" type="line" smooth="yes"/>
      <point x="1841" y="696"/>
      <point x="1908" y="753"/>
      <point x="1908" y="844" type="curve" smooth="yes"/>
      <point x="1908" y="890"/>
      <point x="1888" y="915"/>
      <point x="1845" y="915" type="curve" smooth="yes"/>
      <point x="1620" y="915" type="line"/>
    </contour>
  </outline>
</glyph>
<glyph name="ruble" format="2">
  <advance width="1304"/>
  <outline>
    <contour>
      <point x="1369" y="945" type="curve" smooth="yes"/>
      <point x="1424" y="1218"/>
      <point x="1241" y="1400"/>
      <point x="917" y="1400" type="curve" smooth="yes"/>
      <point x="348" y="1400" type="line" smooth="yes"/>
      <point x="274" y="1400"/>
      <point x="233" y="1355"/>
      <point x="233" y="1288" type="curve" smooth="yes"/>
      <point x="233" y="1248"/>
      <point x="251" y="1225"/>
      <point x="286" y="1204" type="curve" smooth="yes"/>
      <point x="313" y="1187" type="line" smooth="yes"/>
      <point x="337" y="1172"/>
      <point x="345" y="1152"/>
      <point x="333" y="1106" type="curve" smooth="yes"/>
      <point x="126" y="292" type="line" smooth="yes"/>
      <point x="115" y="249"/>
      <point x="106" y="234"/>
      <point x="79" y="219" type="curve" smooth="yes"/>
      <point x="49" y="203" type="line" smooth="yes"/>
      <point x="13" y="184"/>
      <point x="-20" y="147"/>
      <point x="-20" y="96" type="curve" smooth="yes"/>
      <point x="-20" y="38"/>
      <point x="0" y="0"/>
      <point x="78" y="0" type="curve" smooth="yes"/>
      <point x="565" y="0" type="line" smooth="yes"/>
      <point x="639" y="0"/>
      <point x="680" y="45"/>
      <point x="680" y="110" type="curve" smooth="yes"/>
      <point x="680" y="153"/>
      <point x="665" y="186"/>
      <point x="627" y="196" type="curve" smooth="yes"/>
      <point x="567" y="213" type="line" smooth="yes"/>
      <point x="545" y="219"/>
      <point x="535" y="240"/>
      <point x="552" y="312" type="curve" smooth="yes"/>
      <point x="745" y="1098" type="line"/>
      <point x="774" y="1208"/>
      <point x="818" y="1245"/>
      <point x="876" y="1245" type="curve" smooth="yes"/>
      <point x="963" y="1245"/>
      <point x="1020" y="1180"/>
      <point x="992" y="1015" type="curve" smooth="yes"/>
      <point x="955" y="800"/>
      <point x="825" y="701"/>
      <point x="705" y="701" type="curve" smooth="yes"/>
      <point x="508" y="701" type="line"/>
      <point x="457" y="577" type="line"/>
      <point x="784" y="577" type="line" smooth="yes"/>
      <point x="1123" y="577"/>
      <point x="1324" y="720"/>
    </contour>
    <contour>
      <point x="-14" y="401" type="curve" smooth="yes"/>
      <point x="-24" y="362"/>
      <point x="-5" y="339"/>
      <point x="32" y="339" type="curve" smooth="yes"/>
      <point x="744" y="339" type="line" smooth="yes"/>
      <point x="781" y="339"/>
      <point x="815" y="362"/>
      <point x="825" y="401" type="curve" smooth="yes"/>
      <point x="833" y="436"/>
      <point x="812" y="462"/>
      <point x="775" y="462" type="curve" smooth="yes"/>
      <point x="64" y="462" type="line" smooth="yes"/>
      <point x="29" y="462"/>
      <point x="-6" y="436"/>
    </contour>
    <contour>
      <point x="45" y="642" type="curve" smooth="yes"/>
      <point x="35" y="604"/>
      <point x="55" y="580"/>
      <point x="91" y="580" type="curve" smooth="yes"/>
      <point x="288" y="580" type="line"/>
      <point x="305" y="703" type="line"/>
      <point x="125" y="703" type="line" smooth="yes"/>
      <point x="89" y="703"/>
      <point x="55" y="677"/>
    </contour>
  </outline>
</glyph>
